PathFileType	4	(X/Y/Z)	C:/Users/opensim2020/Desktop/walking_exp_matlab/subject01_walking08_straight_04.trc																																																																																																																															
DataRate	CameraRate	NumFrames	NumMarkers	Units	OrigDataRate	OrigDataStartFrame	OrigNumFrames																																																																																																																											
100	100	7	43	mm	100	3723	256																																																																																																																											
Frame#	Time	LFHD			RFHD			LBHD			RBHD			C7			T10			CLAV			STRN			RBAK			LSHO			LUPA			LELB			LFRM			LWRA			LWRB			LFIN			RSHO			RUPA			RELB			RFRM			RWRA			RWRB			RFIN			LASI			RASI			LPSI			RPSI			LTHI			LKNE			LTIB			LANK			LHEE			LTOE			RTHI			RKNE			RTIB			RANK			RHEE			RTOE			*39			*40			*41			*42		
		X1	Y1	Z1	X2	Y2	Z2	X3	Y3	Z3	X4	Y4	Z4	X5	Y5	Z5	X6	Y6	Z6	X7	Y7	Z7	X8	Y8	Z8	X9	Y9	Z9	X10	Y10	Z10	X11	Y11	Z11	X12	Y12	Z12	X13	Y13	Z13	X14	Y14	Z14	X15	Y15	Z15	X16	Y16	Z16	X17	Y17	Z17	X18	Y18	Z18	X19	Y19	Z19	X20	Y20	Z20	X21	Y21	Z21	X22	Y22	Z22	X23	Y23	Z23	X24	Y24	Z24	X25	Y25	Z25	X26	Y26	Z26	X27	Y27	Z27	X28	Y28	Z28	X29	Y29	Z29	X30	Y30	Z30	X31	Y31	Z31	X32	Y32	Z32	X33	Y33	Z33	X34	Y34	Z34	X35	Y35	Z35	X36	Y36	Z36	X37	Y37	Z37	X38	Y38	Z38	X39	Y39	Z39	X40	Y40	Z40	X41	Y41	Z41	X42	Y42	Z42	X43	Y43	Z43
																																																																																																																																		
65	0.64	-644.66461	1665.68738	-1550.80652	-621.40594	1672.14856	-1439.74097	-759.48645	1620.69617	-1531.94348	-738.88239	1626.66687	-1413.93225	-793.71783	1424.17737	-1486.78894	-817.29248	1129.80896	-1468.50366	-648.40637	1360.77966	-1492.82642	-599.5802	1208.00122	-1501.55652	-835.45746	1225.96851	-1404.56165	-715.9245	1389.71741	-1650.8136	-728.6449	1207.495	-1740.15417	-715.62122	1054.58899	-1751.54907	-634.47504	973.46106	-1781.62073	-509.76028	910.73303	-1771.95618	-557.50195	879.49182	-1791.59216	-483.52505	842.4635	-1808.67383	-704.6853	1387.89209	-1337.77185	-764.69061	1186.93286	-1237.505	-768.35431	1062.92993	-1237.46411	-751.33191	944.70099	-1206.05652	-681.10321	821.47418	-1223.27356	-725.56329	826.3988	-1184.28308	-695.14728	745.57202	-1187.17065	-656.31207	924.59235	-1593.53577	-622.4928	933.7204	-1378.14758	-831.75043	937.79187	-1509.50977	-808.04987	939.76086	-1366.25073	-751.45752	598.80511	-1634.86145	-791.46484	467.46765	-1618.2948	-905.79333	313.82114	-1618.24768	-1004.16681	114.42039	-1561.38586	-1050.91467	103.29481	-1504.60193	-874.82703	37.19638	-1566.28882	-613.35229	605.65118	-1312.04639	-568.41504	456.79053	-1342.10291	-577.70239	282.01495	-1334.20117	-546.05383	78.34382	-1377.11975	-586.82098	33.82962	-1427.69141	-404.15707	57.13301	-1374.6582	-635.70331	1705.28186	-1461.30017	-1973.15698	1023.49054	3101.95313	-2012.45056	1022.00476	3140.66235	NaN	NaN	NaN
66	0.65	-636.96606	1666.02625	-1548.86597	-613.65997	1672.39258	-1437.82117	-751.8418	1621.24255	-1530.00366	-731.22235	1627.11865	-1412.09766	-786.09198	1424.33948	-1485.15076	-808.84155	1129.65247	-1467.20728	-640.92413	1361.13062	-1490.94214	-591.4408	1208.63879	-1499.69971	-827.70154	1225.79529	-1403.08704	-708.26764	1389.82324	-1649.21045	-721.15216	1207.32263	-1738.01404	-709.06549	1054.43323	-1749.41382	-628.76831	972.49146	-1779.64648	-504.68478	908.59924	-1770.24756	-552.68683	877.81641	-1789.88159	-479.2059	840.12415	-1806.95276	-697.44873	1387.69739	-1335.98438	-756.77856	1186.3053	-1235.86438	-759.98291	1062.2041	-1236.00415	-742.90332	943.99939	-1204.71277	-672.50128	820.90576	-1221.98975	-717.07678	825.68353	-1182.95337	-686.45941	744.95795	-1186.02344	-647.08716	924.29254	-1592.04016	-613.57422	933.92126	-1376.81445	-822.82324	937.4024	-1508.30371	-799.2854	939.88629	-1364.89587	-741.81384	598.49152	-1633.97278	-781.78918	467.13162	-1617.91687	-898.78827	315.62454	-1618.53943	-1001.14246	117.90193	-1562.34338	-1048.52344	108.41962	-1505.89307	-874.33142	36.88017	-1566.04236	-605.72931	606.13525	-1310.80359	-560.60718	457.34262	-1341.12671	-570.61633	282.64334	-1332.82031	-544.01709	77.94698	-1376.30566	-585.96881	34.7397	-1427.11816	-402.48138	53.32333	-1375.15845	-627.87042	1705.58191	-1459.37451	-1973.01135	1023.39441	3101.82642	-2012.50476	1022.0719	3140.74976	NaN	NaN	NaN
67	0.66	-629.14178	1666.38721	-1546.93408	-605.85425	1672.62268	-1435.87268	-744.17358	1621.88379	-1528.12097	-723.52753	1627.66223	-1410.0686	-778.3432	1424.63855	-1483.53882	-800.43018	1129.65808	-1465.974	-633.34619	1361.66748	-1489.13831	-583.41315	1209.22656	-1497.77917	-820.00751	1225.86133	-1401.67419	-700.46155	1390.05115	-1647.55432	-713.70361	1207.47327	-1736.02905	-702.61456	1054.50439	-1747.24915	-623.20001	971.66534	-1777.52319	-499.86951	906.43079	-1768.34106	-548.26123	876.14655	-1787.87646	-475.23651	837.71136	-1805.11438	-690.18262	1387.58545	-1334.08325	-748.56476	1185.87476	-1234.29736	-751.50299	1061.77258	-1234.60413	-734.20612	943.53943	-1203.35864	-663.65033	820.42725	-1220.75171	-708.17102	825.22656	-1181.86084	-677.62988	744.66089	-1184.68872	-637.80743	924.17603	-1590.44055	-604.87195	934.37567	-1375.37793	-813.84912	937.18683	-1507.21155	-790.74072	940.38611	-1363.76819	-731.54419	598.22314	-1633.06299	-771.36023	466.88989	-1617.69678	-891.16351	317.60065	-1618.82275	-997.88293	121.96941	-1563.47095	-1045.41821	113.91031	-1506.97034	-874.0047	36.82982	-1566.17432	-597.82349	606.6626	-1309.30457	-552.95355	457.85678	-1339.90833	-564.00586	282.82327	-1331.03247	-542.85358	77.67516	-1375.62451	-585.26715	35.20537	-1426.33936	-401.17691	49.9643	-1375.54456	-619.57263	1706.24597	-1457.24756	-1973.09656	1023.33093	3101.90576	-2012.52832	1022.00842	3140.65845	NaN	NaN	NaN
68	0.67	-621.302	1666.81335	-1544.99744	-598.05109	1673.01758	-1433.94385	-736.42413	1622.55273	-1526.22937	-715.82159	1628.20349	-1408.23474	-770.69128	1424.9502	-1482.02148	-792.16345	1129.78259	-1464.81079	-625.65509	1362.23035	-1487.31238	-575.21887	1209.95642	-1495.93665	-812.28613	1225.9989	-1400.39636	-692.51068	1390.40857	-1645.89648	-706.43365	1207.64099	-1733.87341	-696.21063	1054.69458	-1744.98462	-617.81915	970.99304	-1775.31689	-495.35699	904.24518	-1766.35071	-544.18445	874.49731	-1785.64343	-471.67279	835.31781	-1803.25806	-683.06403	1387.77222	-1332.42627	-740.6073	1185.64209	-1232.70459	-742.92303	1061.5592	-1233.16321	-725.42139	943.48395	-1202.04578	-654.7403	820.54944	-1219.32544	-699.16174	825.12201	-1180.32654	-668.59552	744.56921	-1183.28784	-628.52399	924.32043	-1588.79028	-596.17468	935.14795	-1373.9104	-804.81793	937.25745	-1506.26868	-782.18713	941.09369	-1362.80811	-720.65637	597.98523	-1632.16565	-760.28552	466.66183	-1617.49854	-882.45557	319.17566	-1618.56897	-994.22443	126.50084	-1564.64417	-1041.71667	120.22043	-1508.22131	-873.76147	36.76294	-1566.43738	-589.56421	607.31915	-1307.71838	-545.67578	457.93521	-1338.7417	-558.63831	282.72147	-1329.36829	-541.02368	77.13864	-1374.95898	-584.64722	35.93763	-1425.78931	-400.14868	47.2794	-1375.61011	-611.53046	1706.70215	-1455.31128	-1973.19055	1023.4256	3101.896	-2012.43982	1022.1286	3140.81274	NaN	NaN	NaN
69	0.68	-613.38208	1667.22644	-1543.02588	-590.28333	1673.32593	-1431.9325	-728.60608	1623.19373	-1524.35266	-708.08313	1628.84277	-1406.33606	-763.04395	1425.23975	-1480.47375	-784.05017	1130.04712	-1463.67603	-617.89581	1362.84058	-1485.50146	-567.09625	1210.74146	-1494.08618	-804.45679	1226.13013	-1399.22119	-684.55444	1390.8678	-1644.17603	-699.24536	1208.01672	-1731.97107	-689.88849	1055.05798	-1742.73108	-612.61151	970.46033	-1773.12708	-491.05469	902.03101	-1764.24109	-540.24432	872.93036	-1783.63171	-468.35352	832.82855	-1801.28857	-675.79236	1388.06885	-1330.70935	-732.46564	1185.60193	-1231.18066	-734.28522	1061.55566	-1231.74316	-716.43506	943.60315	-1200.66077	-645.58881	820.69977	-1218.03076	-690.03949	825.37323	-1178.90955	-659.34161	744.7655	-1181.90784	-619.29712	924.64618	-1586.94177	-587.68024	935.93988	-1372.15417	-795.77954	937.52014	-1505.46777	-773.64972	941.93909	-1361.90393	-709.27936	597.79968	-1631.28186	-748.36041	466.51135	-1617.56018	-874.23871	322.13196	-1619.62842	-990.08868	131.53893	-1565.94495	-1037.33435	126.75344	-1509.38342	-873.1366	36.78812	-1566.32837	-580.72266	608.27026	-1306.53369	-538.86249	457.6105	-1337.40344	-554.20282	282.26233	-1327.80981	-539.44531	76.98543	-1374.43823	-584.01782	36.40112	-1425.24341	-399.14667	45.35254	-1375.2793	-604.00732	1706.76978	-1453.42456	-1973.17542	1023.46539	3102.02881	-2012.52161	1021.93158	3140.7124	NaN	NaN	NaN
70	0.69	-605.4353	1667.71167	-1541.10217	-582.34711	1673.71472	-1429.92664	-720.74512	1623.90894	-1522.58032	-700.34003	1629.39221	-1404.54578	-755.42932	1425.55188	-1478.91187	-776.10052	1130.41016	-1462.55322	-610.13934	1363.45508	-1483.672	-558.95837	1211.52905	-1492.23584	-796.59601	1226.35168	-1398.16748	-676.65582	1391.36987	-1642.48682	-692.1778	1208.36365	-1729.89539	-683.71063	1055.49524	-1740.4729	-607.5083	969.95416	-1770.87817	-486.96591	899.7243	-1762.0752	-536.64148	871.32684	-1781.28442	-465.28482	830.30524	-1799.26526	-668.53571	1388.5199	-1329.01111	-724.29047	1185.71558	-1229.72583	-725.59296	1061.79468	-1230.35425	-707.33936	943.93774	-1199.19543	-636.27094	821.1745	-1216.58765	-680.69635	825.88147	-1177.74695	-649.90704	745.27423	-1180.57776	-610.08734	925.19916	-1585.021	-579.25604	936.81146	-1370.28723	-786.84912	937.94421	-1504.66785	-765.24292	942.95789	-1361.07117	-697.29407	597.69067	-1630.5061	-735.72144	466.38501	-1617.65039	-864.49194	324.50388	-1619.63867	-985.07788	136.81975	-1567.1897	-1031.94543	133.98433	-1510.66309	-872.61676	36.78959	-1566.41309	-571.96106	608.49847	-1305.22522	-532.54987	457.16916	-1335.97473	-550.20734	281.76559	-1326.3573	-538.50592	76.72459	-1373.85095	-583.47858	36.76421	-1424.77197	-398.21381	43.60398	-1374.87781	-596.06207	1707.09521	-1451.47327	-1973.18176	1023.40204	3101.97168	-2012.60217	1022.12756	3140.57349	NaN	NaN	NaN
71	0.7	-597.40924	1668.18372	-1539.11853	-574.46906	1674.07227	-1427.88721	-712.81293	1624.58984	-1520.80273	-692.55249	1629.98694	-1402.67834	-747.72748	1425.9613	-1477.34656	-768.19562	1130.77979	-1461.49927	-602.37103	1364.07251	-1481.89978	-550.9986	1212.28577	-1490.46814	-788.70551	1226.61462	-1397.10339	-668.80273	1391.93054	-1640.81104	-685.07526	1208.7876	-1727.98315	-677.63	1055.99475	-1738.14722	-602.56433	969.42871	-1768.60083	-483.06454	897.39868	-1759.91614	-533.1803	869.74915	-1779.09961	-462.47263	827.81024	-1797.17603	-661.05536	1388.97742	-1327.26538	-716.25244	1185.94006	-1228.37476	-716.87164	1062.18115	-1228.82678	-698.2832	944.51355	-1197.84839	-626.8125	821.82294	-1215.13928	-671.62445	826.54675	-1176.23389	-640.11603	745.82263	-1179.16943	-600.84332	925.85175	-1582.95569	-571.06183	937.75751	-1368.27637	-777.99567	938.45856	-1503.87964	-756.84766	943.93707	-1360.10022	-684.72974	597.492	-1629.79468	-722.24609	466.11533	-1617.76868	-854.83081	328.06775	-1620.76111	-979.49725	142.59041	-1568.71216	-1025.66077	141.50821	-1511.83582	-872.12921	36.97361	-1566.5647	-563.79919	608.92242	-1303.88403	-526.70874	456.87085	-1334.64575	-546.45209	281.5574	-1325.10229	-537.74976	76.83747	-1373.57568	-583.20746	37.08292	-1424.37476	-397.54434	42.65691	-1375.20654	-587.76135	1707.84521	-1449.28894	-1973.16895	1023.46802	3101.79932	-2012.37964	1021.9032	3140.69019	NaN	NaN	NaN
